<mxfile host="app.diagrams.net" agent="Mozilla/5.0 (Windows NT 10.0; Win64; x64) AppleWebKit/537.36 (KHTML, like Gecko) Chrome/136.0.0.0 Safari/537.36 Edg/136.0.0.0" version="27.0.4">
  <diagram name="第 1 页" id="8cyfDoxYV-YuMFjR1765">
    <mxGraphModel dx="1628" dy="672" grid="1" gridSize="10" guides="1" tooltips="1" connect="1" arrows="1" fold="1" page="1" pageScale="1" pageWidth="827" pageHeight="1169" math="0" shadow="0">
      <root>
        <mxCell id="0" />
        <mxCell id="1" parent="0" />
        <mxCell id="RkOe_8PtJtfO_KYYY1FP-1" value="" style="rounded=1;whiteSpace=wrap;html=1;" vertex="1" parent="1">
          <mxGeometry x="-30" y="200" width="350" height="480" as="geometry" />
        </mxCell>
        <mxCell id="RkOe_8PtJtfO_KYYY1FP-4" value="&lt;font style=&quot;font-size: 16px;&quot;&gt;客户端&lt;/font&gt;&lt;div&gt;&lt;font style=&quot;font-size: 16px;&quot;&gt;Client&lt;/font&gt;&lt;/div&gt;" style="rounded=1;whiteSpace=wrap;html=1;" vertex="1" parent="1">
          <mxGeometry x="354" y="260" width="120" height="60" as="geometry" />
        </mxCell>
        <mxCell id="RkOe_8PtJtfO_KYYY1FP-5" value="&lt;font style=&quot;font-size: 16px;&quot;&gt;服务端&lt;/font&gt;&lt;div&gt;&lt;font style=&quot;font-size: 16px;&quot;&gt;Server&lt;/font&gt;&lt;/div&gt;" style="rounded=1;whiteSpace=wrap;html=1;" vertex="1" parent="1">
          <mxGeometry x="530" y="260" width="120" height="60" as="geometry" />
        </mxCell>
        <mxCell id="RkOe_8PtJtfO_KYYY1FP-8" value="" style="endArrow=classic;html=1;rounded=0;exitX=0.5;exitY=1;exitDx=0;exitDy=0;" edge="1" parent="1" source="RkOe_8PtJtfO_KYYY1FP-4">
          <mxGeometry width="50" height="50" relative="1" as="geometry">
            <mxPoint x="479" y="350" as="sourcePoint" />
            <mxPoint x="414" y="630" as="targetPoint" />
          </mxGeometry>
        </mxCell>
        <mxCell id="RkOe_8PtJtfO_KYYY1FP-9" value="" style="endArrow=classic;html=1;rounded=0;exitX=0.5;exitY=1;exitDx=0;exitDy=0;" edge="1" parent="1">
          <mxGeometry width="50" height="50" relative="1" as="geometry">
            <mxPoint x="590" y="320" as="sourcePoint" />
            <mxPoint x="590" y="630" as="targetPoint" />
          </mxGeometry>
        </mxCell>
        <mxCell id="RkOe_8PtJtfO_KYYY1FP-10" value="" style="endArrow=classic;html=1;rounded=0;" edge="1" parent="1">
          <mxGeometry width="50" height="50" relative="1" as="geometry">
            <mxPoint x="414" y="380" as="sourcePoint" />
            <mxPoint x="590" y="380" as="targetPoint" />
          </mxGeometry>
        </mxCell>
        <mxCell id="RkOe_8PtJtfO_KYYY1FP-11" value="" style="endArrow=classic;html=1;rounded=0;" edge="1" parent="1">
          <mxGeometry width="50" height="50" relative="1" as="geometry">
            <mxPoint x="590" y="430" as="sourcePoint" />
            <mxPoint x="414" y="430" as="targetPoint" />
          </mxGeometry>
        </mxCell>
        <mxCell id="RkOe_8PtJtfO_KYYY1FP-12" value="" style="endArrow=classic;startArrow=classic;html=1;rounded=0;" edge="1" parent="1">
          <mxGeometry width="50" height="50" relative="1" as="geometry">
            <mxPoint x="417" y="500" as="sourcePoint" />
            <mxPoint x="587" y="500" as="targetPoint" />
          </mxGeometry>
        </mxCell>
        <mxCell id="RkOe_8PtJtfO_KYYY1FP-13" value="" style="endArrow=classic;startArrow=classic;html=1;rounded=0;" edge="1" parent="1">
          <mxGeometry width="50" height="50" relative="1" as="geometry">
            <mxPoint x="418" y="544" as="sourcePoint" />
            <mxPoint x="588" y="544" as="targetPoint" />
          </mxGeometry>
        </mxCell>
        <mxCell id="RkOe_8PtJtfO_KYYY1FP-15" value="" style="endArrow=classic;html=1;rounded=0;" edge="1" parent="1">
          <mxGeometry width="50" height="50" relative="1" as="geometry">
            <mxPoint x="590" y="585" as="sourcePoint" />
            <mxPoint x="414" y="585" as="targetPoint" />
          </mxGeometry>
        </mxCell>
        <mxCell id="RkOe_8PtJtfO_KYYY1FP-16" value="&lt;font style=&quot;font-size: 16px;&quot;&gt;握手&lt;/font&gt;" style="text;html=1;align=center;verticalAlign=middle;whiteSpace=wrap;rounded=0;" vertex="1" parent="1">
          <mxGeometry x="474" y="350" width="60" height="30" as="geometry" />
        </mxCell>
        <mxCell id="RkOe_8PtJtfO_KYYY1FP-18" value="&lt;font style=&quot;font-size: 16px;&quot;&gt;确认&lt;/font&gt;" style="text;html=1;align=center;verticalAlign=middle;whiteSpace=wrap;rounded=0;" vertex="1" parent="1">
          <mxGeometry x="474" y="400" width="60" height="30" as="geometry" />
        </mxCell>
        <mxCell id="RkOe_8PtJtfO_KYYY1FP-19" value="&lt;font style=&quot;font-size: 16px;&quot;&gt;双向通信过程&lt;/font&gt;" style="text;html=1;align=center;verticalAlign=middle;whiteSpace=wrap;rounded=0;" vertex="1" parent="1">
          <mxGeometry x="450" y="507" width="110" height="30" as="geometry" />
        </mxCell>
        <mxCell id="RkOe_8PtJtfO_KYYY1FP-20" value="&lt;font style=&quot;font-size: 16px;&quot;&gt;通信结束&lt;/font&gt;" style="text;html=1;align=center;verticalAlign=middle;whiteSpace=wrap;rounded=0;" vertex="1" parent="1">
          <mxGeometry x="454" y="587" width="100" height="30" as="geometry" />
        </mxCell>
      </root>
    </mxGraphModel>
  </diagram>
</mxfile>
